<svg width="395" height="126" viewBox="0 0 395 126" fill="none" xmlns="http://www.w3.org/2000/svg">
<path d="M109.08 34H130.68V44.8H113.4L113.13 45.34L127.53 71.62C130.47 76.9 131.94 80.92 131.94 83.68C131.94 89.74 129.93 94.18 125.91 97H102.06V86.56H120.69L120.96 86.02L104.76 56.95C102.42 52.75 101.25 49.33 101.25 46.69C101.25 40.45 103.86 36.22 109.08 34ZM166.234 34C170.434 37.42 173.554 42.01 175.594 47.77C177.634 53.53 178.654 59.47 178.654 65.59C178.654 71.65 177.664 77.41 175.684 82.87C173.704 88.33 170.554 93.04 166.234 97H147.694C143.374 93.04 140.224 88.33 138.244 82.87C136.264 77.41 135.274 71.65 135.274 65.59C135.274 59.47 136.294 53.53 138.334 47.77C140.374 42.01 143.494 37.42 147.694 34H166.234ZM153.724 86.56H160.204C161.704 84.82 162.964 82 163.984 78.1C165.064 74.14 165.604 69.97 165.604 65.59C165.604 61.21 165.094 57.1 164.074 53.26C163.054 49.36 161.794 46.54 160.294 44.8H153.724C152.224 46.54 150.934 49.36 149.854 53.26C148.834 57.1 148.324 61.21 148.324 65.59C148.324 69.97 148.834 74.14 149.854 78.1C150.934 82 152.224 84.82 153.724 86.56ZM185.674 97V34H198.004V86.56H216.724V97H185.674ZM227.732 34H249.332V44.8H232.052L231.782 45.34L246.182 71.62C249.122 76.9 250.592 80.92 250.592 83.68C250.592 89.74 248.582 94.18 244.562 97H220.712V86.56H239.342L239.612 86.02L223.412 56.95C221.072 52.75 219.902 49.33 219.902 46.69C219.902 40.45 222.512 36.22 227.732 34ZM267.035 44.8H253.445V34H292.865V44.8H279.275V97H267.035V44.8ZM298.086 97V34H310.416V97H298.086ZM336.551 86.56H352.391V97H329.531C325.571 93.28 322.571 88.57 320.531 82.87C318.491 77.17 317.471 71.32 317.471 65.32C317.471 59.26 318.611 53.44 320.891 47.86C323.171 42.28 326.561 37.66 331.061 34H352.391V44.8H336.551C334.931 46.66 333.521 49.66 332.321 53.8C331.181 57.94 330.611 61.9 330.611 65.68C330.611 69.46 331.181 73.42 332.321 77.56C333.521 81.7 334.931 84.7 336.551 86.56ZM358.994 97V34H391.304V44.8H371.324V59.83H389.144V70.27H371.324V86.56H391.664V97H358.994Z" fill="black"/>
<circle cx="50.5" cy="62.5" r="36.5" fill="#B9CDFF"/>
<circle cx="36.5" cy="62.5" r="36.5" fill="url(#paint0_linear_6_20)"/>
<defs>
<linearGradient id="paint0_linear_6_20" x1="52.2089" y1="26" x2="-2.49784e-06" y2="86.0633" gradientUnits="userSpaceOnUse">
<stop stop-color="#0400FF"/>
<stop offset="1" stop-color="#FD2929"/>
</linearGradient>
</defs>
</svg>
